<svg width="500" height="500" viewBox="0 0 500 500" fill="none" xmlns="http://www.w3.org/2000/svg">
<path d="M359.702 46.218H57.6719V237.773H359.702V46.218Z" fill="#E6EDF5"/>
<path d="M359.702 46.218H57.6719V58.482H359.702V46.218Z" fill="#7B95BA"/>
<path d="M64.9841 54.5061C66.1749 54.5061 67.1401 53.5408 67.1401 52.3501C67.1401 51.1594 66.1749 50.1941 64.9841 50.1941C63.7934 50.1941 62.8281 51.1594 62.8281 52.3501C62.8281 53.5408 63.7934 54.5061 64.9841 54.5061Z" fill="#D9B487"/>
<path d="M71.5857 54.5061C72.7764 54.5061 73.7417 53.5408 73.7417 52.3501C73.7417 51.1594 72.7764 50.1941 71.5857 50.1941C70.395 50.1941 69.4297 51.1594 69.4297 52.3501C69.4297 53.5408 70.395 54.5061 71.5857 54.5061Z" fill="#F5DEBF"/>
<path d="M78.1912 54.5061C79.3819 54.5061 80.3472 53.5408 80.3472 52.3501C80.3472 51.1594 79.3819 50.1941 78.1912 50.1941C77.0004 50.1941 76.0352 51.1594 76.0352 52.3501C76.0352 53.5408 77.0004 54.5061 78.1912 54.5061Z" fill="#F5DEBF"/>
<path d="M71.5501 114.581H71.5331C69.3811 114.581 67.2751 114.267 65.2461 113.646C64.2001 113.326 63.6571 112.168 64.0741 111.157L66.2481 105.895C66.6061 105.028 67.5501 104.59 68.4571 104.827C68.9311 104.951 69.4111 105.045 69.8991 105.111C70.8291 105.236 71.5351 106.001 71.5371 106.938L71.5501 114.581ZM79.0291 111.143L76.8431 105.887C76.4831 105.021 76.8391 104.043 77.6491 103.569C78.0761 103.319 78.4881 103.043 78.8821 102.742C79.6281 102.172 80.6701 102.215 81.3341 102.878L85.3611 106.901C86.1341 107.674 86.0771 108.951 85.2361 109.649C84.1141 110.58 82.9051 111.39 81.6191 112.073C80.6521 112.586 79.4491 112.152 79.0291 111.143ZM54.9851 106.807C54.0531 105.685 53.2411 104.477 52.5571 103.191C52.0431 102.226 52.4761 101.022 53.4851 100.601L58.7391 98.411C59.6051 98.05 60.5831 98.406 61.0581 99.215C61.3081 99.642 61.5841 100.053 61.8851 100.446C62.4561 101.191 62.4141 102.233 61.7511 102.898L57.7321 106.929C56.9611 107.704 55.6841 107.648 54.9851 106.807ZM89.5951 100.565L84.3361 98.386C83.4701 98.027 83.0321 97.084 83.2701 96.177C83.3961 95.696 83.4921 95.207 83.5581 94.712C83.6811 93.787 84.4411 93.082 85.3751 93.075L93.0271 93.019V93.088C93.0271 95.247 92.7111 97.36 92.0861 99.395C91.7641 100.441 90.6061 100.983 89.5951 100.565ZM50.0391 93.122V93.087C50.0391 90.942 50.3511 88.843 50.9681 86.821C51.2871 85.775 52.4451 85.231 53.4561 85.647L58.7191 87.816C59.5861 88.173 60.0251 89.116 59.7891 90.024C59.6671 90.494 59.5731 90.972 59.5091 91.455C59.3851 92.384 58.6221 93.09 57.6851 93.093L50.0391 93.122ZM81.9941 86.938C81.7431 86.512 81.4661 86.102 81.1651 85.709C80.5931 84.965 80.6321 83.923 81.2941 83.257L85.3041 79.217C86.0741 78.441 87.3521 78.495 88.0521 79.334C88.9871 80.454 89.8011 81.661 90.4881 82.945C91.0041 83.909 90.5731 85.114 89.5651 85.536L84.3151 87.737C83.4491 88.1 82.4701 87.746 81.9941 86.938ZM61.7121 83.316L57.6771 79.301C56.9021 78.53 56.9571 77.253 57.7971 76.553C58.9181 75.62 60.1251 74.807 61.4091 74.121C62.3741 73.606 63.5781 74.037 64.0001 75.046L66.1971 80.298C66.5591 81.164 66.2041 82.143 65.3951 82.618C64.9681 82.869 64.5571 83.145 64.1641 83.447C63.4191 84.019 62.3771 83.978 61.7121 83.316ZM74.5841 81.341C74.1171 81.22 73.6421 81.127 73.1621 81.063C72.2351 80.939 71.5291 80.178 71.5241 79.242L71.4811 71.594H71.5331C73.6691 71.594 75.7621 71.904 77.7781 72.516C78.8241 72.834 79.3701 73.991 78.9541 75.002L76.7911 80.268C76.4351 81.136 75.4921 81.576 74.5841 81.341Z" fill="#7B95BA"/>
<path d="M71.5317 76.2749C62.2467 76.2749 54.7188 83.8019 54.7188 93.0879C54.7188 102.374 62.2457 109.9 71.5317 109.9C80.8177 109.9 88.3447 102.373 88.3447 93.0869C88.3447 83.8009 80.8167 76.2749 71.5317 76.2749ZM71.5317 100.387C67.5007 100.387 64.2327 97.1189 64.2327 93.0879C64.2327 89.0569 67.5007 85.7889 71.5317 85.7889C75.5627 85.7889 78.8307 89.0569 78.8307 93.0879C78.8307 97.1189 75.5627 100.387 71.5317 100.387Z" fill="#7B95BA"/>
<path d="M71.5501 113.244H71.5331C69.1271 113.244 66.7781 112.852 64.5311 112.077C63.8671 111.848 63.5521 111.084 63.8201 110.435L66.4541 104.059C66.6941 103.477 67.3361 103.155 67.9371 103.342C68.7481 103.594 69.5831 103.758 70.4351 103.834C71.0621 103.89 71.5341 104.432 71.5351 105.062L71.5501 113.244ZM79.2841 110.419L76.6351 104.051C76.3931 103.469 76.6191 102.788 77.1761 102.494C77.9341 102.095 78.6451 101.618 79.3041 101.067C79.7871 100.663 80.5051 100.713 80.9501 101.159L85.8291 106.034C86.3261 106.53 86.3281 107.356 85.8031 107.822C84.3351 109.128 82.7091 110.218 80.9461 111.076C80.3161 111.384 79.5541 111.068 79.2841 110.419ZM55.4751 106.039C54.1671 104.572 53.0751 102.946 52.2151 101.184C51.9071 100.553 52.2231 99.7901 52.8711 99.5201L59.2381 96.8661C59.8191 96.6241 60.5011 96.8491 60.7951 97.4061C61.1941 98.1631 61.6721 98.8741 62.2231 99.5321C62.6281 100.015 62.5781 100.732 62.1331 101.179L57.2631 106.063C56.7681 106.56 55.9431 106.563 55.4751 106.039ZM90.2101 99.4821L83.8371 96.8421C83.2551 96.6011 82.9341 95.9601 83.1211 95.3591C83.3751 94.5411 83.5411 93.6991 83.6171 92.8411C83.6721 92.2171 84.2111 91.7471 84.8381 91.7421L93.0261 91.6811V91.7501C93.0261 94.1621 92.6311 96.5191 91.8521 98.7731C91.6221 99.4361 90.8581 99.7511 90.2101 99.4821ZM50.0391 91.7851V91.7501C50.0391 89.3521 50.4291 87.0091 51.1991 84.7691C51.4271 84.1051 52.1911 83.7891 52.8401 84.0571L59.2181 86.6851C59.8001 86.9251 60.1221 87.5661 59.9361 88.1681C59.6861 88.9761 59.5241 89.8071 59.4481 90.6551C59.3921 91.2821 58.8521 91.7531 58.2231 91.7551L50.0391 91.7851ZM82.2581 86.0721C81.8581 85.3161 81.3791 84.6071 80.8261 83.9501C80.4201 83.4681 80.4691 82.7511 80.9131 82.3031L85.7721 77.4081C86.2671 76.9101 87.0921 76.9051 87.5611 77.4281C88.8731 78.8931 89.9681 80.5161 90.8311 82.2761C91.1401 82.9061 90.8261 83.6701 90.1781 83.9411L83.8161 86.6081C83.2351 86.8521 82.5531 86.6281 82.2581 86.0721ZM62.0951 82.3601L57.2061 77.4951C56.7081 77.0001 56.7051 76.1741 57.2281 75.7071C58.6931 74.3981 60.3181 73.3051 62.0781 72.4421C62.7091 72.1331 63.4721 72.4481 63.7431 73.0961L66.4051 79.4601C66.6481 80.0411 66.4241 80.7231 65.8671 81.0181C65.1101 81.4181 64.4001 81.8961 63.7421 82.4491C63.2591 82.8541 62.5421 82.8051 62.0951 82.3601ZM75.1041 80.1511C74.2991 79.9031 73.4711 79.7411 72.6271 79.6661C72.0011 79.6101 71.5301 79.0711 71.5271 78.4431L71.4811 70.2561H71.5331C73.9231 70.2561 76.2581 70.6431 78.4931 71.4091C79.1571 71.6371 79.4741 72.3991 79.2071 73.0491L76.5861 79.4311C76.3471 80.0141 75.7061 80.3361 75.1041 80.1511Z" fill="#B4C7E0"/>
<path d="M71.5317 74.937C62.2467 74.937 54.7188 82.464 54.7188 91.75C54.7188 101.035 62.2457 108.563 71.5317 108.563C80.8177 108.563 88.3447 101.036 88.3447 91.75C88.3437 82.465 80.8167 74.937 71.5317 74.937ZM71.5317 99.05C67.5007 99.05 64.2327 95.782 64.2327 91.751C64.2327 87.719 67.5007 84.452 71.5317 84.452C75.5627 84.452 78.8307 87.72 78.8307 91.751C78.8307 95.782 75.5627 99.05 71.5317 99.05Z" fill="#B4C7E0"/>
<path opacity="0.6" d="M99.7709 154.478H71.3699C68.0399 154.478 65.3398 151.778 65.3398 148.448V135.442C65.3398 132.112 68.0399 129.412 71.3699 129.412H99.7709C103.101 129.412 105.801 132.112 105.801 135.442V148.448C105.801 151.778 103.101 154.478 99.7709 154.478Z" fill="#B4C7E0"/>
<path d="M100.986 152.046H72.5847C69.2547 152.046 66.5547 149.346 66.5547 146.016V133.01C66.5547 129.68 69.2547 126.98 72.5847 126.98H100.986C104.316 126.98 107.016 129.68 107.016 133.01V146.016C107.016 149.346 104.316 152.046 100.986 152.046Z" fill="#F8ECED"/>
<path d="M78.6122 138.228C79.0972 138.746 79.3392 139.485 79.3392 140.445V144.466H77.9112V140.596C77.9112 139.978 77.7522 139.499 77.4352 139.162C77.1172 138.824 76.6832 138.654 76.1322 138.654C75.5642 138.654 75.1092 138.836 74.7662 139.199C74.4232 139.562 74.2522 140.095 74.2522 140.796V144.466H72.8242V135.196H74.2522V139.079C74.4352 138.561 74.7452 138.161 75.1792 137.876C75.6142 137.592 76.1142 137.45 76.6822 137.45C77.4852 137.451 78.1282 137.71 78.6122 138.228Z" fill="#6C8585"/>
<path d="M84.4762 143.226V144.466H83.5992C82.8642 144.466 82.3062 144.288 81.9272 143.933C81.5462 143.579 81.3572 142.987 81.3572 142.161V138.779H80.3672V137.564H81.3572V135.848H82.7972V137.564H84.4632V138.779H82.7972V142.186C82.7972 142.579 82.8702 142.85 83.0162 143C83.1622 143.151 83.4192 143.226 83.7872 143.226H84.4762Z" fill="#6C8585"/>
<path d="M96.4064 138.228C96.8944 138.746 97.1394 139.485 97.1394 140.445V144.466H95.7114V140.596C95.7114 139.995 95.5604 139.529 95.2604 139.199C94.9604 138.87 94.5464 138.704 94.0204 138.704C93.4614 138.704 93.0164 138.882 92.6864 139.236C92.3574 139.591 92.1924 140.111 92.1924 140.796V144.466H90.7644V140.596C90.7644 139.995 90.6144 139.529 90.3134 139.199C90.0134 138.87 89.5994 138.704 89.0734 138.704C88.5144 138.704 88.0694 138.882 87.7394 139.236C87.4094 139.591 87.2444 140.111 87.2444 140.796V144.466H85.8164V137.564H87.2444V139.004C87.4194 138.503 87.7124 138.119 88.1214 137.852C88.5304 137.585 89.0104 137.451 89.5614 137.451C90.1374 137.451 90.6364 137.593 91.0584 137.877C91.4804 138.161 91.7874 138.57 91.9784 139.105C92.1794 138.587 92.5004 138.182 92.9434 137.89C93.3854 137.598 93.8864 137.452 94.4464 137.452C95.2634 137.451 95.9174 137.71 96.4064 138.228Z" fill="#6C8585"/>
<path d="M100.233 135.196V144.466H98.8047V135.196H100.233Z" fill="#6C8585"/>
<path opacity="0.6" d="M80.1498 190.237H51.7488C48.4188 190.237 45.7188 187.537 45.7188 184.207V171.201C45.7188 167.871 48.4188 165.171 51.7488 165.171H80.1498C83.4798 165.171 86.1798 167.871 86.1798 171.201V184.207C86.1798 187.537 83.4798 190.237 80.1498 190.237Z" fill="#B4C7E0"/>
<path d="M81.3646 187.805H52.9636C49.6336 187.805 46.9336 185.105 46.9336 181.775V168.769C46.9336 165.439 49.6336 162.739 52.9636 162.739H81.3646C84.6946 162.739 87.3946 165.439 87.3946 168.769V181.775C87.3936 185.105 84.6946 187.805 81.3646 187.805Z" fill="#F8ECED"/>
<path d="M56.7008 174.904C57.2958 174.904 57.7598 174.585 57.6878 173.671L57.5138 171.291C57.3688 169.274 58.6168 168.737 60.5898 168.737C60.9168 168.737 61.1558 169.071 61.1558 169.419C61.1558 169.738 60.9708 170.101 60.6768 170.101C59.6748 170.101 59.4578 170.406 59.4868 171.291L59.5738 173.569C59.6178 174.86 59.2258 175.397 58.1808 175.673V175.745C59.1678 175.963 59.6468 176.529 59.5888 177.748L59.4868 180.127C59.4438 180.983 60.0088 181.317 60.6768 181.317C60.9958 181.317 61.1258 181.695 61.1258 181.999C61.1258 182.347 60.9228 182.681 60.5308 182.681C58.5578 182.681 57.3678 182.13 57.5128 180.142L57.6868 177.69C57.7448 176.892 57.3238 176.558 56.6848 176.558C56.3318 176.558 56.0898 176.108 56.0898 175.731C56.0908 175.339 56.3338 174.904 56.7008 174.904Z" fill="#6F5E68"/>
<path d="M62.9417 177.776H63.3477C64.0437 177.776 64.6097 178.342 64.6097 179.053C64.6097 179.749 64.0437 180.315 63.3477 180.315H62.9417C62.2447 180.315 61.6797 179.749 61.6797 179.053C61.6797 178.342 62.2457 177.776 62.9417 177.776Z" fill="#6F5E68"/>
<path d="M67.3831 177.776H67.7891C68.4851 177.776 69.0511 178.342 69.0511 179.053C69.0511 179.749 68.4851 180.315 67.7891 180.315H67.3831C66.6871 180.315 66.1211 179.749 66.1211 179.053C66.1211 178.342 66.6871 177.776 67.3831 177.776Z" fill="#6F5E68"/>
<path d="M71.8284 177.776H72.2344C72.9304 177.776 73.4964 178.342 73.4964 179.053C73.4964 179.749 72.9304 180.315 72.2344 180.315H71.8284C71.1324 180.315 70.5664 179.749 70.5664 179.053C70.5654 178.342 71.1314 177.776 71.8284 177.776Z" fill="#6F5E68"/>
<path d="M78.4885 176.558C77.8505 176.558 77.4295 176.892 77.4875 177.69L77.6615 180.142C77.8065 182.13 76.6165 182.681 74.6435 182.681C74.2515 182.681 74.0485 182.347 74.0485 181.999C74.0485 181.694 74.1785 181.317 74.4985 181.317C75.1665 181.317 75.7325 180.983 75.6885 180.127L75.5865 177.748C75.5285 176.529 76.0075 175.963 76.9945 175.745V175.673C75.9495 175.398 75.5575 174.861 75.6015 173.569L75.6885 171.291C75.7175 170.406 75.5005 170.101 74.4985 170.101C74.2055 170.101 74.0195 169.738 74.0195 169.419C74.0195 169.071 74.2585 168.737 74.5855 168.737C76.5595 168.737 77.8065 169.274 77.6615 171.291L77.4875 173.671C77.4145 174.585 77.8785 174.904 78.4735 174.904C78.8415 174.904 79.0835 175.339 79.0835 175.731C79.0825 176.108 78.8415 176.558 78.4885 176.558Z" fill="#6F5E68"/>
<path opacity="0.6" d="M450.28 77.2109H279.363V162.609H450.28V77.2109Z" fill="#7B95BA"/>
<path d="M454.28 73.2109H283.363V158.609H454.28V73.2109Z" fill="#363039" stroke="#F8ECED" stroke-miterlimit="10"/>
<path d="M454.28 73.2109H283.363V85.1819H454.28V73.2109Z" fill="#F8ECED"/>
<path d="M293.462 77.1909H286.566V81.2209H293.462V77.1909Z" fill="#363039"/>
<path d="M298.902 79.2048H345.729" stroke="#363039" stroke-miterlimit="10" stroke-linecap="round" stroke-linejoin="round"/>
<path d="M293.094 97.3H377.581" stroke="#F8ECED" stroke-miterlimit="10" stroke-linecap="round" stroke-linejoin="round"/>
<path d="M293.094 107.793H423.164" stroke="#F8ECED" stroke-miterlimit="10" stroke-linecap="round" stroke-linejoin="round"/>
<path d="M350.887 113.588H402.471" stroke="#F8ECED" stroke-miterlimit="10" stroke-linecap="round" stroke-linejoin="round"/>
<path d="M293.094 113.588H344.552" stroke="#F8ECED" stroke-miterlimit="10" stroke-linecap="round" stroke-linejoin="round"/>
<path d="M307.559 143.839H413.254" stroke="#F8ECED" stroke-miterlimit="10" stroke-linecap="round" stroke-linejoin="round"/>
<path d="M350.887 119.384H402.471" stroke="#F8ECED" stroke-miterlimit="10" stroke-linecap="round" stroke-linejoin="round"/>
<path d="M293.094 119.384H344.552" stroke="#F8ECED" stroke-miterlimit="10" stroke-linecap="round" stroke-linejoin="round"/>
<path d="M350.887 125.18H402.471" stroke="#F8ECED" stroke-miterlimit="10" stroke-linecap="round" stroke-linejoin="round"/>
<path d="M293.094 125.18H344.552" stroke="#F8ECED" stroke-miterlimit="10" stroke-linecap="round" stroke-linejoin="round"/>
<path d="M293.094 135.799H354.962" stroke="#F8ECED" stroke-miterlimit="10" stroke-linecap="round" stroke-linejoin="round"/>
<path opacity="0.6" d="M217.507 206.422H134.792C130.707 206.422 127.395 203.11 127.395 199.025V97.5349C127.395 93.4499 130.707 90.1379 134.792 90.1379H217.507C221.592 90.1379 224.904 93.4499 224.904 97.5349V199.025C224.904 203.11 221.592 206.422 217.507 206.422Z" fill="#B4C7E0"/>
<path d="M220.507 203.422H137.792C133.707 203.422 130.395 200.11 130.395 196.025V94.5349C130.395 90.4499 133.707 87.1379 137.792 87.1379H220.507C224.592 87.1379 227.904 90.4499 227.904 94.5349V196.025C227.904 200.11 224.592 203.422 220.507 203.422Z" fill="white"/>
<path d="M222.436 213.131C219.83 212.816 215.32 209.642 217.611 202.229L203.789 203.052C207.206 209.386 210.8 212.962 221.744 213.97C222.219 213.987 223.092 213.57 222.436 213.131Z" fill="white"/>
<path d="M142.844 97.6279L137.52 100.702L142.844 103.776" stroke="#DD6A5B" stroke-width="1.5" stroke-miterlimit="10" stroke-linecap="round" stroke-linejoin="round"/>
<path d="M157.645 97.6279L162.969 100.702L157.645 103.776" stroke="#DD6A5B" stroke-width="1.5" stroke-miterlimit="10" stroke-linecap="round" stroke-linejoin="round"/>
<path d="M148.679 95.6208L145.832 104.627" stroke="#DD6A5B" stroke-width="1.5" stroke-miterlimit="10" stroke-linecap="round" stroke-linejoin="round"/>
<path d="M142.844 150.067L137.52 153.141L142.844 156.215" stroke="#DD6A5B" stroke-width="1.5" stroke-miterlimit="10" stroke-linecap="round" stroke-linejoin="round"/>
<path d="M198.418 161.056L203.743 164.13L198.418 167.204" stroke="#DD6A5B" stroke-width="1.5" stroke-miterlimit="10" stroke-linecap="round" stroke-linejoin="round"/>
<path d="M193.054 158.198L190.207 167.204" stroke="#DD6A5B" stroke-width="1.5" stroke-miterlimit="10" stroke-linecap="round" stroke-linejoin="round"/>
<path d="M152.609 114.924H204.865" stroke="#6C8585" stroke-width="2" stroke-miterlimit="10" stroke-linecap="round" stroke-linejoin="round"/>
<path d="M152.609 130.728H211.979" stroke="#6C8585" stroke-width="2" stroke-miterlimit="10" stroke-linecap="round" stroke-linejoin="round"/>
<path d="M145.453 153.141H204.823" stroke="#6F5E68" stroke-width="2" stroke-miterlimit="10" stroke-linecap="round" stroke-linejoin="round"/>
<path d="M152.227 123.212H176.053" stroke="#DD6A5B" stroke-width="2" stroke-miterlimit="10" stroke-linecap="round" stroke-linejoin="round"/>
<path d="M182.926 123.212H214.388" stroke="#6C8585" stroke-width="2" stroke-miterlimit="10" stroke-linecap="round" stroke-linejoin="round"/>
<path d="M151.844 182.214H175.67" stroke="#6C8585" stroke-width="2" stroke-miterlimit="10" stroke-linecap="round" stroke-linejoin="round"/>
<path d="M182.543 182.214H214.006" stroke="#6F5E68" stroke-width="2" stroke-miterlimit="10" stroke-linecap="round" stroke-linejoin="round"/>
<path d="M146.531 162.701H183.375" stroke="#6F5E68" stroke-width="2" stroke-miterlimit="10" stroke-linecap="round" stroke-linejoin="round"/>
<path d="M115.766 390.011C121.453 383.096 130.331 366.229 135.499 359.015C138.85 354.337 142.024 348.6 143.384 338.623C143.751 335.93 142.158 332.258 141.56 331.105C140.961 329.952 139.348 329.111 138.006 329.609C136.758 328.363 138.143 326.495 139.476 325.317C143.152 322.066 146.829 318.814 150.505 315.563C153.619 312.809 156.969 308.9 154.894 305.491C153.491 303.184 150.036 302.188 148.797 299.812C147.474 297.274 149.203 294.405 150.658 291.923C157.476 280.289 158.859 266.352 154.434 253.882C153.815 252.138 152.559 250.091 150.452 250.165C149.142 250.211 148.108 251.103 147.227 251.943C136.785 261.894 127.719 272.925 120.283 284.725C120.126 284.974 119.961 285.232 119.696 285.399C118.744 285.999 117.553 285.073 116.488 284.638C114.324 283.755 111.661 285.185 110.721 287.089C109.781 288.993 110.08 291.163 110.395 293.215C110.86 296.242 111.326 299.27 111.791 302.297C112.3 305.606 112.091 309.976 108.42 311.003C106.273 311.603 103.692 310.679 101.788 311.726C100.055 312.678 99.8044 314.746 99.7864 316.522C99.5974 335.332 104.639 373.849 115.766 390.011Z" fill="#6C8585"/>
<path d="M116.135 417.445C114.268 373.931 119.235 322.662 136.696 280.892" stroke="#7A9696" stroke-width="1.574" stroke-miterlimit="10" stroke-linecap="round" stroke-linejoin="round"/>
<path d="M104.577 387.115C99.2967 365.635 87.7287 345.682 77.4777 328.335C71.7657 318.669 68.9847 302.31 68.8517 291.577C68.8337 290.145 68.9737 288.685 69.5967 287.358C70.1487 286.185 71.0567 285.163 71.6727 284.014C74.2677 279.168 71.1947 273.606 68.5437 268.783C61.0727 255.19 56.6137 240.363 55.4767 225.343C54.8107 216.546 55.4047 207.284 60.5047 199.651C61.3497 198.386 62.4867 197.075 64.1467 196.811C65.8867 196.534 67.5377 197.504 68.9107 198.47C71.5957 200.361 74.0987 202.438 76.4987 204.597C94.5877 220.872 106.738 242.019 110.814 264.323C112.008 270.856 112.526 277.468 112.853 284.076C113.56 298.37 113.38 312.684 113.199 326.99C113.027 340.561 112.3 375.005 105.22 387.115" fill="#7A9696"/>
<path d="M104.604 415.913C104.604 415.913 111.492 290.464 79.2109 227.404" stroke="#6C8585" stroke-width="1.574" stroke-miterlimit="10" stroke-linecap="round" stroke-linejoin="round"/>
<path d="M125.929 408.91H94.8048C93.3748 408.91 92.2148 407.75 92.2148 406.32V403.38C92.2148 401.949 93.3748 400.79 94.8048 400.79H125.93C127.361 400.79 128.52 401.95 128.52 403.38V406.32C128.52 407.751 127.36 408.91 125.929 408.91Z" fill="#DD6A5B"/>
<path d="M115.222 433.023H105.601C101.063 433.023 96.4659 429.608 96.2099 425.077L94.0469 403.086H126.688L124.149 424.989C123.859 429.492 119.734 433.023 115.222 433.023Z" fill="#DD6A5B"/>
<path d="M94.3359 408.663C104.797 408.663 115.471 408.91 125.932 408.91L125.483 413.497L102.053 408.834" fill="#363039"/>
<path d="M246.169 344.328L234.289 434.561" stroke="#363039" stroke-width="1.7333" stroke-miterlimit="10"/>
<path d="M324.766 344.328L336.969 434.561" stroke="#363039" stroke-width="1.7333" stroke-miterlimit="10"/>
<path d="M322.419 234.015H251.727C247.03 234.015 243.223 238.688 243.223 244.453C243.223 244.453 250.177 307.321 248.174 319.315C246.171 331.309 238.694 334.577 239.553 341.651C240.411 348.724 335.099 346.708 335.099 340.131C335.099 333.554 326.379 330.193 324.333 319.315C322.288 308.437 330.923 244.453 330.923 244.453C330.923 238.688 327.116 234.015 322.419 234.015Z" fill="#B4C7E0"/>
<path d="M332.315 346.337H242.127C240.59 346.337 239.344 345.091 239.344 343.554V340.29C239.344 338.753 240.59 337.507 242.127 337.507H332.315C333.852 337.507 335.098 338.753 335.098 340.29V343.554C335.098 345.091 333.852 346.337 332.315 346.337Z" fill="#7B95BA"/>
<path d="M266.096 157.448C264.548 164.828 263.132 171.309 260.498 177.812C259.576 180.089 259.081 182.277 257.306 183.976C255.531 185.675 253.956 187.812 253.809 190.265C253.696 192.153 254.441 193.975 254.758 195.84C255.36 199.38 254.169 203.384 251.182 205.378C250.18 206.047 249.034 206.464 247.974 207.037C245.288 208.489 243.182 210.982 242.198 213.872C241.648 215.491 241.494 217.433 242.554 218.774C242.937 219.258 243.455 219.63 243.797 220.145C244.836 221.708 243.902 223.869 244.47 225.658C245.071 227.552 247.244 228.547 249.231 228.541C251.218 228.535 253.112 227.776 255.027 227.249C259.183 226.106 263.632 226.047 267.817 227.078C270.796 227.812 273.627 229.084 276.622 229.751C280.762 230.673 285.217 230.38 289.072 228.612C292.927 226.844 296.124 223.548 297.469 219.525C298.866 215.346 298.475 210.226 301.702 207.225C303.003 206.015 304.714 205.362 306.221 204.42C311.6 201.057 313.843 194.481 315.707 188.418C316.246 186.665 316.791 184.861 316.646 183.033C316.349 179.264 313.177 175.963 313.655 172.213C313.818 170.934 314.403 169.748 314.69 168.491C315.662 164.242 313.172 160.035 310.657 156.476C309.381 154.671 308.055 152.875 306.386 151.427C303.397 148.834 299.458 147.516 295.518 147.156C287.522 146.426 279.26 149.632 273.849 155.565C271.656 157.969 269.898 160.836 269.145 164.002" fill="#F5DEBF"/>
<path d="M291.709 202.092C287.644 202.056 283.556 202.05 279.546 202.719C275.536 203.387 271.574 204.766 268.359 207.254C268.003 207.53 267.65 207.826 267.415 208.209C267.123 208.686 267.035 209.263 267.035 209.823C267.035 212.314 268.616 214.534 270.416 216.257C274.884 220.535 280.866 222.781 286.67 224.92C287.632 225.274 288.67 225.633 289.66 225.368C290.314 225.193 290.866 224.762 291.394 224.338C296.628 220.131 301.587 218.169 306.028 213.132C306.955 212.081 307.838 208.121 307.615 206.737C307.444 205.676 306.601 204.853 305.713 204.248C302.909 202.339 299.381 201.876 295.992 201.735C292.305 201.582 288.605 201.747 284.946 202.228" fill="#84504C"/>
<path d="M298.82 320.429C327.323 328.125 323.286 393.11 311.646 424.824" stroke="#FEA589" stroke-width="15.0329" stroke-miterlimit="10" stroke-linecap="round" stroke-linejoin="round"/>
<path d="M319.614 422.985L305.909 420.565C305.08 420.468 304.252 420.954 303.921 421.709C301.749 426.656 300.558 430.652 301.529 432.163C302.139 433.112 302.375 433 303.423 433.899C303.423 433.899 324.551 446.128 328.316 442.08C332.131 437.978 319.614 422.985 319.614 422.985Z" fill="#363039"/>
<path d="M316 440.173C321.283 442.39 326.602 443.924 328.316 442.08C329.924 440.351 328.632 436.689 326.598 433.03C322.403 430.766 319.129 433.289 316 440.173Z" fill="#F5DEBF"/>
<path d="M308.878 428.066C308.513 429.228 307.327 429.985 306.23 429.758C305.133 429.53 304.539 428.404 304.904 427.242C305.269 426.08 306.455 425.323 307.552 425.55C308.65 425.777 309.243 426.904 308.878 428.066Z" fill="#F5DEBF"/>
<path d="M302.315 430.136C306.279 433.348 310.622 436.058 315.254 438.198C315.42 438.275 315.566 438.028 315.398 437.951C310.79 435.821 306.461 433.13 302.517 429.933C302.375 429.819 302.171 430.02 302.315 430.136Z" fill="#F5DEBF"/>
<path d="M269.055 320.429C248.75 344.073 253.132 387.464 261.85 425.9" stroke="#FEA589" stroke-width="15.0329" stroke-miterlimit="10" stroke-linecap="round" stroke-linejoin="round"/>
<path d="M253.823 422.502L267.85 420.43C268.669 420.314 269.505 420.787 269.858 421.541C272.17 426.483 273.167 430.014 272.572 431.727C272.228 432.716 271.772 433.075 270.745 433.822C270.745 433.822 248.523 445.231 244.661 441.229C240.747 437.173 253.823 422.502 253.823 422.502Z" fill="#363039"/>
<path d="M246.906 431.694C244.554 435.488 242.913 439.417 244.661 441.229C246.671 443.312 253.654 441.22 259.889 438.736C255.982 432.528 251.74 429.388 246.906 431.694Z" fill="#F5DEBF"/>
<path d="M268.127 427.346C268.705 428.449 268.33 429.636 267.288 429.997C266.246 430.357 264.932 429.755 264.354 428.652C263.776 427.549 264.151 426.362 265.193 426.002C266.235 425.64 267.549 426.242 268.127 427.346Z" fill="#F5DEBF"/>
<path d="M259.645 436.109C261.812 435.467 263.839 434.47 265.869 433.494C267.657 432.635 269.905 431.912 271.174 430.3C271.287 430.157 271.086 429.953 270.972 430.098C269.724 431.683 267.486 432.4 265.724 433.247C263.716 434.212 261.711 435.198 259.568 435.833C259.393 435.886 259.468 436.162 259.645 436.109Z" fill="#F5DEBF"/>
<path d="M287.686 220.671C283.504 220.671 280.082 217.249 280.082 213.067V196.625C280.082 192.443 283.504 189.021 287.686 189.021C291.868 189.021 295.29 192.443 295.29 196.625V213.067C295.29 217.249 291.868 220.671 287.686 220.671Z" fill="#FEA589"/>
<path d="M280.082 192.579H295.291V209.032C295.291 209.032 290.474 210.675 280.082 203.317V192.579Z" fill="#363039"/>
<path d="M321.525 239.887C322.817 220.922 309.019 213.132 289.284 213.132H287.967H287.408H286.091C266.357 213.132 251.58 221.634 252.872 240.599C253.642 251.9 260.593 256.018 265.017 273.174C267.853 284.17 261.664 298.286 261.417 305.324C261.039 316.096 266.445 328.126 286.179 328.126H287.496H288.055H289.372C309.106 328.126 314.512 316.096 314.134 305.324C313.887 298.285 307.698 284.17 310.534 273.174C314.96 256.017 320.755 251.188 321.525 239.887Z" fill="#FEA589"/>
<path d="M260.57 298.722C258.83 303.311 260.412 308.445 260.02 313.338C259.538 319.353 256.125 324.666 253.838 330.249C252.025 334.673 250.901 339.344 249.8 343.997C247.75 352.66 245.742 361.438 245.865 370.339C245.918 374.2 246.78 388.724 247.234 392.559C248.54 403.588 249.438 403.935 250.744 414.964C250.808 415.507 250.895 416.097 251.292 416.473C251.845 416.997 252.726 416.874 253.471 416.715C258.358 415.678 263.245 414.64 268.132 413.603C269.054 412.531 260.805 370.458 269.054 345.167C269.381 344.164 273.196 332.847 273.87 332.034C275.43 330.151 278.189 329.935 280.633 329.865C288.358 329.644 297.003 329.762 302.527 335.168C306.642 339.195 309.649 353.307 310.481 359.005C313.484 379.571 304.023 409.751 305.802 412.186C311.118 413.616 316.777 415.166 322.271 415.519C322.852 415.556 323.486 415.573 323.953 415.225C324.365 414.918 324.548 414.399 324.704 413.91C328.747 401.221 329.167 387.704 329.553 374.393C329.791 366.184 330.021 357.885 328.337 349.848C326.132 339.326 320.759 329.768 315.152 320.596C314.465 319.472 313.759 318.317 313.519 317.021C313.239 315.514 313.614 313.973 313.972 312.483C314.858 308.791 314.417 303.719 315.115 299.987C315.18 299.638 313.238 298.756 312.985 298.508C312.804 298.33 310.594 297.162 310.341 297.143C308.618 297.012 303.76 297.415 302.037 297.285C293.565 296.642 293.386 298.434 284.913 297.791C278.495 297.304 271.978 296.823 265.673 298.118C263.921 298.478 262.198 298.973 260.522 299.598" fill="#363039"/>
<path d="M248.48 413.241L249.724 418.113C249.82 418.491 250.198 418.726 250.58 418.646L269.463 414.671C269.841 414.592 270.091 414.231 270.033 413.85L269.173 408.132C269.109 407.707 268.693 407.429 268.276 407.534L249.009 412.354C248.617 412.452 248.38 412.85 248.48 413.241Z" fill="#363039"/>
<path d="M304.66 407.095L303.913 412.434C303.864 412.786 304.101 413.114 304.451 413.176L324.428 416.75C324.753 416.808 325.072 416.617 325.173 416.303L326.763 411.379C326.885 411.001 326.648 410.602 326.259 410.527L305.44 406.538C305.068 406.467 304.712 406.721 304.66 407.095Z" fill="#363039"/>
<path d="M285.102 305.865C285.101 308.74 285.099 311.615 285.098 314.49C285.098 315.028 284.962 315.77 285.135 316.279C285.273 316.685 285.728 316.798 286.089 316.954C287.418 317.527 288.746 318.1 290.075 318.673C290.242 318.745 290.388 318.499 290.22 318.426C289.039 317.917 287.858 317.407 286.677 316.898C286.402 316.779 286.037 316.686 285.791 316.516C285.388 316.238 285.384 315.922 285.384 315.476C285.384 314.86 285.385 314.244 285.385 313.628C285.386 311.041 285.387 308.453 285.388 305.865C285.388 305.681 285.102 305.681 285.102 305.865Z" fill="#6F5E68"/>
<path d="M290.465 318.695C290.253 316.403 290.04 314.112 289.828 311.82C289.625 309.631 289.564 307.37 289.096 305.219C289.057 305.039 288.781 305.115 288.82 305.295C289.299 307.498 289.357 309.824 289.565 312.066C289.77 314.276 289.974 316.486 290.179 318.696C290.196 318.876 290.482 318.878 290.465 318.695Z" fill="#6F5E68"/>
<path d="M261.891 308.883C264.803 309.616 267.727 310.3 270.663 310.931C272.091 311.238 273.522 311.533 274.955 311.815C275.711 311.964 276.469 312.11 277.226 312.252C277.714 312.343 277.706 312.454 277.678 312.945C277.655 313.345 277.632 313.744 277.608 314.144C277.597 314.328 277.884 314.327 277.894 314.144C277.931 313.505 277.968 312.866 278.005 312.226C278.008 312.168 277.959 312.099 277.9 312.088C272.554 311.096 267.24 309.935 261.966 308.608C261.788 308.562 261.712 308.838 261.891 308.883Z" fill="#6F5E68"/>
<path d="M300.163 311.841C304.501 310.863 308.862 309.99 313.242 309.223C313.423 309.191 313.346 308.916 313.166 308.947C308.786 309.714 304.425 310.586 300.087 311.565C299.907 311.605 299.983 311.881 300.163 311.841Z" fill="#6F5E68"/>
<path d="M250.538 412.11C255.393 411.022 260.257 409.973 265.13 408.963C265.31 408.926 265.233 408.65 265.053 408.687C260.181 409.697 255.318 410.746 250.462 411.834C250.283 411.875 250.359 412.151 250.538 412.11Z" fill="#6F5E68"/>
<path d="M309.553 407.532C314.85 408.266 320.112 409.237 325.323 410.441C325.502 410.482 325.579 410.207 325.399 410.165C320.188 408.961 314.926 407.99 309.629 407.256C309.449 407.232 309.371 407.507 309.553 407.532Z" fill="#6F5E68"/>
<path d="M270.963 334.905C267.368 342.471 264.066 350.176 261.075 358.001C260.213 360.255 259.379 362.519 258.568 364.791C258.506 364.965 258.782 365.039 258.844 364.867C261.664 356.963 264.791 349.169 268.225 341.511C269.196 339.346 270.192 337.193 271.21 335.05C271.288 334.884 271.042 334.739 270.963 334.905Z" fill="#6F5E68"/>
<path d="M322.281 236.088C322.13 233.304 321.964 230.493 321.2 227.811C319.711 222.584 315.944 218.133 311.245 215.401C306.546 212.669 300.98 211.594 295.554 211.918L295.561 212.914C294.62 215.167 293.974 217.597 292.489 219.536C291.004 221.475 288.32 222.803 286.093 221.801C284.893 221.261 284.054 220.164 283.284 219.097C281.922 217.21 280.613 215.285 279.359 213.325L279.882 213.245C277.022 212.016 273.742 213.054 270.832 214.158C268.111 215.191 265.411 216.279 262.733 217.421C260.443 218.398 258.129 219.44 256.273 221.099C253.405 223.662 251.926 227.426 250.936 231.143C249.985 234.713 249.391 238.377 249.167 242.064C248.75 248.933 249.611 255.808 249.877 262.685C250.161 270.046 249.761 277.42 249.982 284.783C250.054 287.197 250.203 289.655 251.075 291.907C252.42 295.382 255.335 297.994 258.338 300.2C258.71 300.473 259.088 300.742 259.48 300.985C259.331 302.186 259.259 303.708 259.744 304.68C259.744 304.68 278.683 310.726 314.673 304.68C314.673 304.68 315.269 303.619 315.187 301.112C317.336 299.444 318.506 296.342 319.205 293.551C323.884 274.872 323.326 255.317 322.281 236.088Z" fill="#84504C"/>
<path d="M311.645 228.17C311.645 228.17 371.064 264.723 319.899 274.541" stroke="#FEA589" stroke-width="12.0535" stroke-miterlimit="10" stroke-linecap="round" stroke-linejoin="round"/>
<path d="M261.845 228.17C261.845 228.17 196.163 263.872 255.36 274.471" stroke="#FEA589" stroke-width="12.0535" stroke-miterlimit="10" stroke-linecap="round" stroke-linejoin="round"/>
<path d="M261.868 218.035C256.904 219.595 252.451 222.462 248.315 225.62C243.466 229.321 238.966 233.456 234.564 237.677C230.048 242.007 225.547 246.542 222.751 252.139C219.955 257.736 219.094 264.649 221.98 270.2C224.798 275.621 230.725 278.873 236.735 279.974C242.745 281.076 248.921 280.334 254.985 279.591C255.51 279.527 256.081 279.439 256.438 279.05C256.725 278.737 256.812 278.295 256.882 277.876C257.388 274.865 257.678 271.817 257.748 268.764C254.676 267.564 251.604 266.364 248.532 265.165C245.641 264.036 242.361 262.474 241.689 259.444C240.953 256.124 243.787 253.168 246.432 251.031C250.931 247.396 255.649 244.03 260.551 240.96C264.548 238.457 268.945 235.834 270.669 231.444C271.918 228.264 271.45 224.466 269.467 221.684C267.485 218.901 265.282 217.89 261.868 218.035Z" fill="#84504C"/>
<path d="M308.708 218.866C304.65 219.515 301.894 223.852 302.036 227.96C302.178 232.067 304.627 235.793 307.671 238.554C310.715 241.315 314.361 243.306 317.789 245.573C321.513 248.036 325.008 250.846 328.212 253.955C329.575 255.277 330.994 257.08 330.39 258.88C329.99 260.07 328.826 260.801 327.76 261.464C324.935 263.221 322.237 265.181 319.693 267.324C319.083 267.838 318.458 268.396 318.187 269.146C317.946 269.812 318.015 270.544 318.088 271.248C318.33 273.601 318.572 275.954 318.813 278.307C318.851 278.675 318.907 279.08 319.188 279.321C319.467 279.56 319.874 279.555 320.242 279.538C328.088 279.161 333.385 278.527 340.677 275.607C343.411 274.512 346.11 272.983 347.745 270.533C348.717 269.076 349.257 267.37 349.593 265.652C351.589 255.445 344.53 243.624 337.043 236.406C329.556 229.188 329.914 230.992 321.939 224.316C318.377 221.334 317.116 219.32 314.498 217.697C312.786 216.634 309.197 216.914 308.708 218.866Z" fill="#84504C"/>
<path d="M312.6 185.563C313.187 188.721 311.17 191.754 308.096 192.337C305.022 192.92 302.055 190.833 301.468 187.675C300.882 184.517 302.898 181.484 305.972 180.901C309.046 180.318 312.013 182.405 312.6 185.563Z" fill="#FEA589"/>
<path d="M274.917 185.563C275.503 188.721 273.487 191.754 270.413 192.337C267.339 192.92 264.372 190.833 263.785 187.675C263.199 184.517 265.215 181.484 268.289 180.901C271.363 180.318 274.331 182.405 274.917 185.563Z" fill="#FEA589"/>
<path d="M291.228 200.298L285.876 200.405C276.282 200.598 268.215 191.997 267.971 182.15L267.455 161.31C267.211 151.463 274.862 143.249 284.456 143.057L289.808 142.95C299.402 142.757 307.452 150.656 307.695 160.503L308.211 181.343C308.455 191.189 300.822 200.105 291.228 200.298Z" fill="#FEA589"/>
<path d="M265.875 185.426C267.406 186.676 268.352 188.239 268.686 190.192C268.737 190.491 269.257 190.5 269.299 190.192C269.592 188.024 268.163 185.686 265.919 185.35C265.88 185.344 265.835 185.394 265.875 185.426Z" fill="#363039"/>
<path d="M309.746 185.35C307.502 185.686 306.074 188.024 306.366 190.192C306.408 190.5 306.928 190.491 306.979 190.192C307.313 188.238 308.259 186.676 309.79 185.426C309.829 185.394 309.785 185.344 309.746 185.35Z" fill="#363039"/>
<path d="M294.699 179.4C294.701 180.416 295.463 181.242 296.401 181.245C297.339 181.248 298.097 180.427 298.094 179.412C298.091 178.396 297.329 177.57 296.392 177.567C295.454 177.564 294.696 178.384 294.699 179.4Z" fill="#363039"/>
<path d="M278.289 179.4C278.291 180.416 279.053 181.242 279.991 181.245C280.929 181.248 281.687 180.427 281.684 179.412C281.681 178.396 280.92 177.57 279.982 177.567C279.045 177.564 278.286 178.384 278.289 179.4Z" fill="#363039"/>
<path d="M284.586 187.4C285.755 189.642 286.665 189.46 287.562 189.606C288.36 189.736 289.497 189.598 290.259 187.452" stroke="#363039" stroke-width="0.7203" stroke-miterlimit="10" stroke-linecap="round" stroke-linejoin="round"/>
<path d="M298.094 186.964C302.478 186.964 306.032 183.41 306.032 179.026C306.032 174.642 302.478 171.088 298.094 171.088C293.71 171.088 290.156 174.642 290.156 179.026C290.156 183.41 293.71 186.964 298.094 186.964Z" stroke="#DD6A5B" stroke-width="1.1445" stroke-miterlimit="10"/>
<path d="M278.29 187.344C282.674 187.344 286.228 183.79 286.228 179.406C286.228 175.022 282.674 171.468 278.29 171.468C273.906 171.468 270.352 175.022 270.352 179.406C270.352 183.79 273.906 187.344 278.29 187.344Z" stroke="#DD6A5B" stroke-width="1.1445" stroke-miterlimit="10"/>
<path d="M276.758 169.126C276.758 169.126 277.821 168.709 279.169 168.655C280.517 168.6 281.66 168.9 281.66 168.9" stroke="#363039" stroke-width="1.6334" stroke-miterlimit="10" stroke-linecap="round" stroke-linejoin="round"/>
<path d="M294 168.962C294 168.962 295.06 168.584 296.409 168.628C297.758 168.673 298.908 169.097 298.908 169.097" stroke="#363039" stroke-width="1.6334" stroke-miterlimit="10" stroke-linecap="round" stroke-linejoin="round"/>
<path d="M287.022 174.561C286.191 180.658 286.385 183.748 288.632 183.472" stroke="#363039" stroke-width="0.7203" stroke-miterlimit="10" stroke-linecap="round" stroke-linejoin="round"/>
<path d="M309.761 181.214C310.446 174.083 310.715 165.714 308.81 158.809C306.905 151.903 302.238 145.384 295.47 143.038C290.936 141.467 285.952 141.89 281.254 142.866C279.681 143.193 278.101 143.587 276.688 144.349C275.625 144.923 274.681 145.692 273.755 146.468C271.732 148.163 269.732 149.947 268.301 152.165C265.592 156.362 265.215 161.624 265.31 166.619C265.402 171.472 265.877 176.37 267.446 180.964L267.692 181.131C268.077 181.349 268.592 181.112 268.827 180.737C269.062 180.362 269.089 179.897 269.103 179.455C269.249 174.864 268.764 170.131 270.26 165.788C271.011 163.606 272.234 161.623 273.468 159.672C274.218 158.486 274.984 157.294 275.984 156.31C277.7 154.621 280.083 153.628 282.492 153.599C284.061 153.58 285.795 154.075 286.595 155.425C286.993 156.097 287.112 156.902 287.49 157.586C288.338 159.122 290.28 159.699 292.034 159.708C293.788 159.717 295.542 159.307 297.286 159.497C299.165 159.702 300.956 160.631 302.206 162.049C304.466 164.611 304.76 168.29 305.206 171.677C305.652 175.064 305.274 179.04 308.199 180.804" fill="#F5DEBF"/>
<path d="M257.143 198.577C257.874 203.109 253.639 206.152 250.442 208.449C247.598 210.493 244.491 213.074 244.34 216.866C244.333 217.05 244.619 217.05 244.626 216.866C244.803 212.432 248.997 209.9 252.174 207.551C255.037 205.434 258.047 202.394 257.418 198.501C257.389 198.319 257.113 198.396 257.143 198.577Z" fill="white"/>
<path d="M255.404 209.605C257.575 207.165 259.892 204.389 260.339 201.037C260.816 197.456 258.409 194.608 257.917 191.204C257.655 189.394 257.95 187.318 259.513 186.164C259.66 186.056 259.517 185.807 259.369 185.917C256.922 187.722 257.369 191.171 258.299 193.668C258.951 195.417 259.825 197.123 260.063 198.996C260.303 200.88 259.791 202.73 258.914 204.39C257.939 206.237 256.584 207.85 255.202 209.403C255.08 209.54 255.282 209.743 255.404 209.605Z" fill="white"/>
<path d="M288.861 153.302C289.139 155.173 290.934 156.25 292.642 156.631C293.882 156.907 295.15 157.072 296.416 157.158C297.555 157.236 298.636 157.239 299.719 157.649C301.719 158.405 303.384 159.97 304.599 161.696C305.875 163.507 306.517 165.483 306.896 167.647C307.345 170.216 307.452 172.831 307.821 175.412C307.847 175.594 308.123 175.516 308.097 175.336C307.485 171.059 307.709 166.327 305.451 162.489C304.475 160.829 303.145 159.333 301.533 158.269C300.778 157.771 299.946 157.37 299.069 157.141C298.044 156.873 296.978 156.924 295.93 156.834C293.532 156.629 289.586 156.255 289.136 153.226C289.11 153.044 288.835 153.122 288.861 153.302Z" fill="white"/>
<path d="M309.778 170.694C310.134 168.588 310.981 166.599 310.471 164.426C309.912 162.046 308.171 160.172 306.479 158.507C306.348 158.378 306.145 158.58 306.277 158.709C307.935 160.341 309.647 162.168 310.195 164.502C310.692 166.619 309.849 168.567 309.502 170.618C309.471 170.798 309.747 170.876 309.778 170.694Z" fill="white"/>
<path d="M252.788 212.498C250.624 213.669 249.34 216.106 249.61 218.554C249.63 218.735 249.916 218.737 249.896 218.554C249.637 216.2 250.848 213.873 252.932 212.745C253.095 212.658 252.95 212.411 252.788 212.498Z" fill="white"/>
<path d="M310.436 181.508C311.21 179.941 311.443 178.18 311.048 176.472C310.604 174.553 309.458 172.726 309.776 170.694C309.804 170.514 309.529 170.436 309.5 170.618C309.229 172.343 309.951 173.912 310.476 175.515C311.121 177.483 311.118 179.481 310.188 181.363C310.107 181.528 310.354 181.673 310.436 181.508Z" fill="white"/>
<path d="M270.549 303.212C270.702 304.188 270.734 305.163 270.652 306.147C270.637 306.331 270.923 306.329 270.938 306.147C271.023 305.136 270.983 304.137 270.825 303.136C270.796 302.954 270.52 303.031 270.549 303.212Z" fill="#363039"/>
<path d="M279.215 303.88C279.215 304.752 279.215 305.625 279.215 306.497C279.215 306.681 279.501 306.681 279.501 306.497C279.501 305.625 279.501 304.752 279.501 303.88C279.501 303.696 279.215 303.696 279.215 303.88Z" fill="#363039"/>
<path d="M288.812 304.055C288.812 304.695 288.812 305.335 288.812 305.974C288.812 306.158 289.099 306.158 289.099 305.974C289.099 305.334 289.099 304.694 289.099 304.055C289.1 303.871 288.812 303.87 288.812 304.055Z" fill="#363039"/>
<path d="M296.141 304.229C296.141 304.811 296.141 305.392 296.141 305.974C296.141 306.158 296.427 306.158 296.427 305.974C296.427 305.392 296.427 304.811 296.427 304.229C296.428 304.045 296.141 304.045 296.141 304.229Z" fill="#363039"/>
<path d="M304.657 303.36C304.713 303.942 304.769 304.524 304.826 305.105C304.843 305.287 305.13 305.289 305.112 305.105C305.056 304.523 305 303.941 304.943 303.36C304.925 303.178 304.639 303.177 304.657 303.36Z" fill="#363039"/>
<path d="M310.797 302.833C310.797 303.356 310.797 303.88 310.797 304.403C310.797 304.587 311.083 304.587 311.083 304.403C311.083 303.88 311.083 303.356 311.083 302.833C311.083 302.649 310.797 302.649 310.797 302.833Z" fill="#363039"/>
<path d="M330.854 256.775C333.682 254.557 337.183 253.342 340.775 253.318C340.959 253.317 340.959 253.031 340.775 253.032C337.1 253.056 333.542 254.306 330.651 256.572C330.507 256.686 330.711 256.887 330.854 256.775Z" fill="#363039"/>
<path d="M230.513 256.144C232.223 256.043 233.959 256.273 235.639 256.578C237.317 256.883 239.029 257.274 240.593 257.97C240.76 258.044 240.906 257.798 240.737 257.723C239.148 257.016 237.42 256.612 235.715 256.302C234.011 255.992 232.248 255.755 230.513 255.858C230.33 255.869 230.329 256.155 230.513 256.144Z" fill="#363039"/>
<path d="M295.363 213.415C296.82 210.206 300.074 208.473 303.068 206.943C303.232 206.859 303.087 206.612 302.924 206.696C299.889 208.247 296.592 210.019 295.116 213.271C295.041 213.437 295.287 213.583 295.363 213.415Z" fill="#363039"/>
<path d="M279.756 213.218C278.335 211.074 276.477 209.277 274.286 207.93C274.129 207.833 273.985 208.081 274.142 208.177C276.292 209.499 278.115 211.259 279.51 213.363C279.61 213.515 279.858 213.372 279.756 213.218Z" fill="#363039"/>
<path d="M269.406 210.976C271.211 211.129 272.341 212.993 273.422 214.236C274.62 215.614 275.882 216.937 277.202 218.199C279.799 220.682 282.617 222.926 285.611 224.912C285.765 225.014 285.908 224.766 285.755 224.665C282.538 222.531 279.526 220.097 276.775 217.386C275.422 216.053 274.134 214.655 272.913 213.2C271.973 212.08 270.968 210.822 269.406 210.689C269.223 210.674 269.224 210.96 269.406 210.976Z" fill="#363039"/>
<path d="M272.136 213.265C271.149 213.644 270.161 214.022 269.174 214.401C269.004 214.466 269.078 214.743 269.25 214.677C270.237 214.298 271.225 213.92 272.212 213.541C272.382 213.476 272.308 213.199 272.136 213.265Z" fill="#363039"/>
<path d="M291.911 224.493C293.15 223.641 294.267 222.628 295.213 221.458C296.238 220.19 296.927 218.774 297.682 217.341C298.529 215.734 299.707 214.377 300.938 213.055C302.053 211.857 303.192 210.573 304.795 210.052C304.969 209.995 304.895 209.719 304.719 209.776C303.309 210.234 302.245 211.248 301.248 212.305C300.093 213.529 298.924 214.767 298.015 216.19C297.093 217.634 296.491 219.244 295.482 220.64C294.462 222.049 293.198 223.262 291.767 224.246C291.616 224.35 291.759 224.598 291.911 224.493Z" fill="#363039"/>
<path d="M303.236 212.571C304.12 212.565 304.936 212.802 305.683 213.277C305.839 213.376 305.982 213.129 305.827 213.03C305.043 212.531 304.165 212.279 303.236 212.285C303.052 212.286 303.052 212.573 303.236 212.571Z" fill="#363039"/>
<path d="M283.328 225.249C282.879 231.093 282.43 236.937 281.981 242.781C281.967 242.965 282.253 242.964 282.267 242.781C282.716 236.937 283.165 231.093 283.614 225.249C283.629 225.066 283.342 225.067 283.328 225.249Z" fill="#363039"/>
<path d="M293.176 225.074C293.563 230.395 293.67 235.733 293.499 241.065C293.493 241.249 293.779 241.249 293.785 241.065C293.957 235.732 293.849 230.395 293.462 225.074C293.449 224.891 293.163 224.89 293.176 225.074Z" fill="#363039"/>
<path d="M293.848 241.849C293.848 242.319 293.848 242.789 293.848 243.259C293.848 243.443 294.134 243.443 294.134 243.259C294.134 242.789 294.134 242.319 294.134 241.849C294.134 241.665 293.848 241.665 293.848 241.849Z" fill="#363039"/>
<path d="M282.249 243.73C282.295 244.358 282.203 244.958 281.954 245.537C281.882 245.704 282.129 245.85 282.201 245.682C282.471 245.052 282.585 244.414 282.535 243.731C282.521 243.548 282.235 243.546 282.249 243.73Z" fill="#363039"/>
<path d="M268.549 268.26C278.529 263.362 288.51 258.465 298.49 253.567C301.32 252.178 304.151 250.789 306.981 249.4C307.146 249.319 307.002 249.072 306.837 249.153C296.857 254.05 286.876 258.948 276.896 263.846C274.066 265.235 271.235 266.624 268.405 268.013C268.24 268.094 268.385 268.341 268.549 268.26Z" fill="#363039"/>
<path d="M287.784 268.113C291.266 266.461 294.854 265.047 298.526 263.877C298.701 263.821 298.626 263.545 298.45 263.601C294.754 264.779 291.144 266.204 287.64 267.866C287.474 267.945 287.619 268.192 287.784 268.113Z" fill="#363039"/>
<path d="M261.497 301.348C267.508 302.734 273.781 302.835 279.916 303.156C286.258 303.487 292.618 303.702 298.964 303.377C302.466 303.198 305.957 302.849 309.417 302.279C309.598 302.249 309.521 301.973 309.341 302.003C296.993 304.035 284.347 303.218 271.925 302.413C268.448 302.188 264.973 301.857 261.572 301.073C261.393 301.031 261.317 301.307 261.497 301.348Z" fill="#363039"/>
<path d="M264.734 302.659C264.734 303.357 264.734 304.055 264.734 304.753C264.734 304.937 265.02 304.938 265.02 304.753C265.02 304.055 265.02 303.357 265.02 302.659C265.02 302.475 264.734 302.474 264.734 302.659Z" fill="#363039"/>
<path d="M428.477 289.616H121.557C120.87 289.616 120.312 289.059 120.312 288.372V280.351C120.312 279.664 120.87 279.107 121.557 279.107H428.477C429.164 279.107 429.72 279.664 429.72 280.351V288.372C429.72 289.06 429.164 289.616 428.477 289.616Z" fill="#B4C7E0"/>
<path d="M171.609 289.616V434.201" stroke="#363039" stroke-width="1.734" stroke-miterlimit="10"/>
<path d="M379.621 289.616V434.201" stroke="#363039" stroke-width="1.734" stroke-miterlimit="10"/>
<path d="M323.886 276.818H244.194C241.748 276.818 239.766 274.835 239.766 272.39V225.671C239.766 223.225 241.748 221.243 244.194 221.243H323.886C326.332 221.243 328.314 223.225 328.314 225.671V272.39C328.314 274.836 326.332 276.818 323.886 276.818Z" fill="#E8CACC"/>
<path d="M323.886 279.107H244.194C241.748 279.107 239.766 277.124 239.766 274.679V227.96C239.766 225.514 241.748 223.532 244.194 223.532H323.886C326.332 223.532 328.314 225.514 328.314 227.96V274.679C328.314 277.125 326.332 279.107 323.886 279.107Z" fill="#F8ECED"/>
<path d="M285.105 256.667C288.058 256.667 290.452 254.273 290.452 251.32C290.452 248.367 288.058 245.973 285.105 245.973C282.152 245.973 279.758 248.367 279.758 251.32C279.758 254.273 282.152 256.667 285.105 256.667Z" fill="white"/>
<path d="M391.016 223.532V277.992" stroke="#363039" stroke-width="1.734" stroke-miterlimit="10"/>
<path d="M404.095 279.166H377.934C377.74 279.166 377.582 279.008 377.582 278.814V277.169C377.582 276.975 377.739 276.817 377.934 276.817H404.095C404.289 276.817 404.447 276.975 404.447 277.169V278.814C404.447 279.009 404.289 279.166 404.095 279.166Z" fill="#DD6A5B"/>
<path d="M400.882 219.579C400.882 223.529 396.464 226.731 391.015 226.731C385.566 226.731 381.148 223.529 381.148 219.579C381.148 215.629 385.566 212.427 391.015 212.427C396.464 212.427 400.882 215.629 400.882 219.579Z" fill="#F5DEBF"/>
<path d="M407.135 223.532H375.406C374.77 223.532 374.286 222.962 374.389 222.335L379.479 191.242C379.561 190.744 379.991 190.378 380.496 190.378H401.754C402.256 190.378 402.684 190.739 402.77 191.233L408.151 222.326C408.259 222.956 407.774 223.532 407.135 223.532Z" fill="#DD6A5B"/>
<path d="M376.824 434.774C376.824 434.774 414.815 437.562 434.457 435.338C436.566 435.099 438.566 435.31 438.719 432.725C438.896 429.737 425.78 431.318 425.78 431.318L376.824 434.774Z" fill="#363039"/>
<path d="M427.967 430.233L377 434.684C372.631 434.882 366.691 429.457 366.493 425.087L364.723 385.974C364.525 381.605 367.907 377.902 372.276 377.705L425.48 375.297C429.849 375.099 436.325 379.467 436.522 383.836L435.519 421.964C435.718 426.333 432.336 430.035 427.967 430.233Z" fill="#84504C"/>
<path d="M431.497 432.364L378.293 434.772C373.924 434.97 370.221 431.588 370.024 427.219L368.254 388.106C368.056 383.737 371.438 380.034 375.807 379.837L429.011 377.429C433.38 377.231 437.083 380.613 437.28 384.982L439.05 424.095C439.248 428.464 435.867 432.167 431.497 432.364Z" fill="#84504C"/>
<path d="M372.902 380.162C370.553 380.93 369.23 383.228 368.815 385.55C368.539 387.094 368.594 388.672 368.653 390.232C368.717 391.892 368.787 393.552 368.863 395.212C369.172 402.017 369.574 408.817 370.067 415.611C370.344 419.422 370.65 423.231 370.985 427.038C371.001 427.22 371.288 427.222 371.272 427.038C370.705 420.583 370.219 414.122 369.817 407.654C369.616 404.421 369.437 401.186 369.278 397.95C369.122 394.762 368.895 391.558 368.891 388.365C368.887 385.312 369.669 381.521 372.979 380.438C373.153 380.38 373.078 380.104 372.902 380.162Z" fill="#363039"/>
<path d="M375.611 379.84C382.63 379.908 389.642 379.605 396.631 378.965C400.084 378.649 403.534 378.317 407 378.174C410.443 378.032 413.889 378.012 417.335 377.97C421.271 377.921 425.208 377.837 429.133 377.514C429.315 377.499 429.317 377.213 429.133 377.228C422.179 377.8 415.198 377.609 408.23 377.842C401.299 378.075 394.417 378.992 387.491 379.328C383.534 379.52 379.573 379.593 375.612 379.554C375.426 379.552 375.426 379.838 375.611 379.84Z" fill="#363039"/>
<path d="M390.563 404.136C400.62 403.681 410.678 403.226 420.735 402.77C423.702 402.636 426.669 402.502 429.635 402.367C429.818 402.359 429.819 402.073 429.635 402.081C419.578 402.536 409.52 402.991 399.463 403.446C396.496 403.58 393.529 403.715 390.563 403.849C390.38 403.858 390.379 404.144 390.563 404.136Z" fill="#363039"/>
<path d="M429.638 402.368C431.976 402.239 433.418 400.042 434.302 398.115C435.461 395.589 436.082 392.81 436.479 390.07C436.639 388.964 436.769 387.848 436.798 386.73C436.803 386.546 436.517 386.546 436.512 386.73C436.457 388.89 436.096 391.066 435.613 393.167C435.045 395.639 434.271 398.327 432.646 400.331C431.885 401.27 430.88 402.013 429.638 402.081C429.455 402.092 429.454 402.378 429.638 402.368Z" fill="#363039"/>
<path d="M390.563 403.85C387.676 404.233 385.032 401.945 383.259 399.923C382.143 398.651 381.146 397.273 380.052 395.98C378.821 394.524 377.559 393.097 376.318 391.65C374.824 389.909 373.37 388.134 372.02 386.278C371.913 386.131 371.664 386.273 371.773 386.422C374.172 389.717 376.912 392.728 379.55 395.828C381.589 398.224 383.344 400.956 385.981 402.756C387.322 403.672 388.909 404.355 390.562 404.135C390.743 404.112 390.745 403.826 390.563 403.85Z" fill="#363039"/>
<path d="M398.358 409.944L396.6 410.023C395.552 410.07 394.663 409.259 394.616 408.211L394.354 402.434C394.307 401.386 395.118 400.497 396.166 400.45L397.924 400.37C398.972 400.323 399.861 401.134 399.908 402.182L400.169 407.959C400.217 409.008 399.406 409.896 398.358 409.944Z" fill="#6F5E68"/>
<path d="M424.952 408.74L423.203 408.819C422.156 408.866 421.269 408.056 421.221 407.009L420.959 401.228C420.912 400.181 421.722 399.294 422.769 399.246L424.519 399.167C425.566 399.12 426.453 399.93 426.501 400.977L426.763 406.758C426.81 407.805 426 408.693 424.952 408.74Z" fill="#6F5E68"/>
<path d="M365.191 389.54L367.703 391.708C367.703 391.708 361.214 434.958 346.456 435.971L344.703 434.201C344.703 434.201 356.416 431.566 365.191 389.54Z" fill="#6F5E68"/>
<path d="M366.291 423.498C366.291 423.498 343.031 426.89 346.456 435.971L344.703 434.201C344.703 434.201 339.694 425.877 366.29 420.413" fill="#6F5E68"/>
<path d="M192.771 279.107H188.899C183.896 279.107 179.84 275.051 179.84 270.048V263.172C179.84 260.706 181.839 258.706 184.306 258.706H197.365C199.831 258.706 201.831 260.705 201.831 263.172V270.048C201.83 275.051 197.774 279.107 192.771 279.107Z" fill="#D9B487"/>
<path d="M207.409 268.958C207.409 272.433 205.33 274.539 202.765 274.539C200.2 274.539 198.121 274.463 198.121 270.987C198.121 267.512 200.548 264.768 202.765 263.555C205.066 262.296 207.409 265.483 207.409 268.958Z" stroke="#D9B487" stroke-width="2.5946" stroke-miterlimit="10"/>
<path d="M190.962 257.144C189.886 256.526 188.891 255.79 187.96 254.883C187.066 253.972 186.194 252.769 185.897 251.233C185.589 249.692 185.941 248.181 186.405 246.954C186.869 245.699 187.462 244.596 188.07 243.537C189.25 241.524 190.294 239.603 190.852 237.587C191.104 236.59 191.264 235.58 191.099 234.57C190.966 233.551 190.503 232.538 189.842 231.523C189.773 231.421 189.8 231.282 189.902 231.213C189.968 231.168 190.054 231.165 190.122 231.196C191.268 231.735 192.264 232.712 192.912 233.954C193.526 235.211 193.727 236.659 193.621 238.011C193.411 240.73 192.27 243.166 191.04 245.25C189.899 247.26 188.672 249.228 188.701 250.887C188.694 251.735 189.004 252.707 189.552 253.682C190.073 254.673 190.76 255.641 191.398 256.683L191.402 256.69C191.496 256.844 191.448 257.045 191.294 257.139C191.19 257.204 191.062 257.201 190.962 257.144Z" fill="#F8ECED"/>
</svg>
